<?xml version="1.0" encoding="UTF-8"?>
<svg xmlns="http://www.w3.org/2000/svg" xmlns:xlink="http://www.w3.org/1999/xlink" width="64px" height="64px" viewBox="0 0 64 64" version="1.1">
<g id="surface1">
<path style=" stroke:none;fill-rule:evenodd;fill:rgb(21.960784%,24.313726%,28.627452%);fill-opacity:1;" d="M 20.539062 28.261719 C 21.199219 28.261719 21.738281 27.722656 21.738281 27.058594 L 21.738281 23.601562 C 21.738281 22.9375 21.199219 22.402344 20.539062 22.402344 C 19.875 22.402344 19.339844 22.9375 19.339844 23.601562 L 19.339844 27.058594 C 19.339844 27.722656 19.875 28.261719 20.539062 28.261719 Z M 20.539062 28.261719 "/>
<path style=" stroke:none;fill-rule:evenodd;fill:rgb(21.960784%,24.313726%,28.627452%);fill-opacity:1;" d="M 15.648438 26.566406 C 15.996094 26.003906 16.734375 25.828125 17.300781 26.183594 L 21.175781 28.578125 C 21.738281 28.925781 21.910156 29.671875 21.5625 30.234375 C 21.214844 30.796875 20.472656 30.972656 19.910156 30.621094 L 16.035156 28.222656 C 15.472656 27.871094 15.296875 27.128906 15.648438 26.566406 Z M 15.648438 26.566406 "/>
<path style=" stroke:none;fill-rule:evenodd;fill:rgb(21.960784%,24.313726%,28.627452%);fill-opacity:1;" d="M 24.839844 26.5 C 24.453125 25.960938 23.699219 25.839844 23.164062 26.226562 L 19.839844 28.625 C 19.300781 29.015625 19.183594 29.765625 19.566406 30.300781 C 19.953125 30.839844 20.710938 30.960938 21.246094 30.574219 L 24.566406 28.171875 C 25.109375 27.785156 25.226562 27.035156 24.839844 26.5 Z M 24.839844 26.5 "/>
<path style=" stroke:none;fill-rule:evenodd;fill:rgb(21.960784%,24.313726%,28.627452%);fill-opacity:1;" d="M 16.664062 34.398438 C 17.328125 34.398438 17.871094 34.9375 17.871094 35.601562 L 17.871094 53.601562 L 44.265625 53.601562 L 44.265625 35.601562 C 44.265625 34.9375 44.808594 34.398438 45.464844 34.398438 C 46.128906 34.398438 46.664062 34.9375 46.664062 35.601562 L 46.664062 54.800781 C 46.664062 55.460938 46.128906 56 45.464844 56 L 16.664062 56 C 16.003906 56 15.464844 55.460938 15.464844 54.800781 L 15.464844 35.601562 C 15.464844 34.9375 16.003906 34.398438 16.664062 34.398438 Z M 16.664062 34.398438 "/>
<path style=" stroke:none;fill-rule:evenodd;fill:rgb(21.960784%,24.313726%,28.627452%);fill-opacity:1;" d="M 10.964844 30.011719 C 11.398438 29.511719 12.160156 29.460938 12.660156 29.898438 L 17.800781 34.398438 L 44.328125 34.398438 L 49.476562 29.898438 C 49.976562 29.460938 50.734375 29.511719 51.171875 30.011719 C 51.609375 30.511719 51.558594 31.265625 51.058594 31.703125 L 45.574219 36.503906 C 45.351562 36.691406 45.074219 36.800781 44.777344 36.800781 L 17.351562 36.800781 C 17.0625 36.800781 16.777344 36.691406 16.5625 36.503906 L 11.074219 31.703125 C 10.578125 31.265625 10.527344 30.511719 10.964844 30.011719 Z M 10.964844 30.011719 "/>
<path style=" stroke:none;fill-rule:evenodd;fill:rgb(21.960784%,24.313726%,28.627452%);fill-opacity:1;" d="M 27.035156 42.800781 C 27.035156 42.136719 27.574219 41.601562 28.234375 41.601562 L 33.472656 41.601562 C 34.136719 41.601562 34.671875 42.136719 34.671875 42.800781 C 34.671875 43.460938 34.136719 44 33.472656 44 L 28.234375 44 C 27.574219 44 27.035156 43.460938 27.035156 42.800781 Z M 27.035156 42.800781 "/>
<path style=" stroke:none;fill-rule:evenodd;fill:rgb(21.960784%,24.313726%,28.627452%);fill-opacity:1;" d="M 10.664062 9.199219 C 10.664062 8.539062 11.203125 8 11.871094 8 L 28.664062 8 C 29.328125 8 29.871094 8.539062 29.871094 9.199219 L 29.871094 23.601562 C 29.871094 24.261719 29.328125 24.800781 28.664062 24.800781 L 24.464844 24.800781 C 23.800781 24.800781 23.265625 24.261719 23.265625 23.601562 C 23.265625 22.9375 23.800781 22.398438 24.464844 22.398438 L 27.464844 22.398438 L 27.464844 10.398438 L 13.066406 10.398438 L 13.066406 22.398438 L 16.066406 22.398438 C 16.726562 22.398438 17.265625 22.9375 17.265625 23.601562 C 17.265625 24.261719 16.726562 24.800781 16.066406 24.800781 L 11.871094 24.800781 C 11.203125 24.800781 10.664062 24.261719 10.664062 23.601562 Z M 10.664062 9.199219 "/>
<path style=" stroke:none;fill-rule:evenodd;fill:rgb(21.960784%,24.313726%,28.627452%);fill-opacity:1;" d="M 16.671875 8.464844 C 17.335938 8.472656 17.871094 9.003906 17.871094 9.671875 L 17.871094 12.800781 L 22.664062 12.800781 L 22.664062 9.671875 C 22.664062 9.003906 23.203125 8.464844 23.871094 8.464844 C 24.527344 8.472656 25.066406 9.003906 25.066406 9.671875 L 25.0625 14 C 25.0625 14.664062 24.527344 15.199219 23.863281 15.199219 L 16.664062 15.199219 C 16.347656 15.199219 16.046875 15.074219 15.816406 14.847656 C 15.589844 14.625 15.464844 14.316406 15.464844 14 L 15.472656 9.664062 C 15.472656 9.003906 16.011719 8.464844 16.671875 8.464844 Z M 16.671875 8.464844 "/>
<path style=" stroke:none;fill-rule:evenodd;fill:rgb(21.960784%,24.313726%,28.627452%);fill-opacity:1;" d="M 42.136719 28.261719 C 42.800781 28.261719 43.339844 27.722656 43.339844 27.058594 L 43.339844 23.601562 C 43.339844 22.9375 42.800781 22.402344 42.136719 22.402344 C 41.476562 22.402344 40.9375 22.9375 40.9375 23.601562 L 40.9375 27.058594 C 40.9375 27.722656 41.476562 28.261719 42.136719 28.261719 Z M 42.136719 28.261719 "/>
<path style=" stroke:none;fill-rule:evenodd;fill:rgb(21.960784%,24.313726%,28.627452%);fill-opacity:1;" d="M 37.246094 26.566406 C 37.597656 26.003906 38.335938 25.828125 38.898438 26.183594 L 42.773438 28.578125 C 43.335938 28.925781 43.511719 29.671875 43.164062 30.234375 C 42.8125 30.796875 42.074219 30.972656 41.511719 30.621094 L 37.636719 28.222656 C 37.074219 27.871094 36.898438 27.128906 37.246094 26.566406 Z M 37.246094 26.566406 "/>
<path style=" stroke:none;fill-rule:evenodd;fill:rgb(21.960784%,24.313726%,28.627452%);fill-opacity:1;" d="M 46.4375 26.5 C 46.050781 25.960938 45.300781 25.839844 44.765625 26.226562 L 41.4375 28.625 C 40.902344 29.015625 40.785156 29.765625 41.171875 30.300781 C 41.558594 30.839844 42.308594 30.960938 42.847656 30.574219 L 46.171875 28.171875 C 46.703125 27.785156 46.828125 27.035156 46.4375 26.5 Z M 46.4375 26.5 "/>
<path style=" stroke:none;fill-rule:evenodd;fill:rgb(21.960784%,24.313726%,28.627452%);fill-opacity:1;" d="M 32.265625 9.199219 C 32.265625 8.539062 32.808594 8 33.464844 8 L 50.265625 8 C 50.933594 8 51.464844 8.539062 51.464844 9.199219 L 51.464844 23.601562 C 51.464844 24.261719 50.933594 24.800781 50.265625 24.800781 L 46.066406 24.800781 C 45.402344 24.800781 44.871094 24.261719 44.871094 23.601562 C 44.871094 22.9375 45.402344 22.398438 46.066406 22.398438 L 49.066406 22.398438 L 49.066406 10.398438 L 34.664062 10.398438 L 34.664062 22.398438 L 37.664062 22.398438 C 38.328125 22.398438 38.871094 22.9375 38.871094 23.601562 C 38.871094 24.261719 38.328125 24.800781 37.664062 24.800781 L 33.464844 24.800781 C 32.808594 24.800781 32.265625 24.261719 32.265625 23.601562 Z M 32.265625 9.199219 "/>
<path style=" stroke:none;fill-rule:evenodd;fill:rgb(21.960784%,24.313726%,28.627452%);fill-opacity:1;" d="M 38.273438 8.464844 C 38.9375 8.472656 39.472656 9.003906 39.472656 9.671875 L 39.464844 12.800781 L 44.265625 12.800781 L 44.265625 9.671875 C 44.265625 9.003906 44.808594 8.464844 45.464844 8.464844 C 46.128906 8.472656 46.664062 9.003906 46.664062 9.671875 L 46.664062 14 C 46.664062 14.664062 46.125 15.199219 45.464844 15.199219 L 38.265625 15.199219 C 37.949219 15.199219 37.640625 15.074219 37.414062 14.847656 C 37.191406 14.625 37.066406 14.316406 37.066406 14 L 37.074219 9.664062 C 37.074219 9.003906 37.609375 8.464844 38.273438 8.464844 Z M 38.273438 8.464844 "/>
</g>
</svg>
